G04*
G04 #@! TF.GenerationSoftware,Altium Limited,Altium Designer,22.4.2 (48)*
G04*
G04 Layer_Color=8421504*
%FSLAX25Y25*%
%MOIN*%
G70*
G04*
G04 #@! TF.SameCoordinates,09A78814-C825-4F20-898B-51866AA435C6*
G04*
G04*
G04 #@! TF.FilePolarity,Positive*
G04*
G01*
G75*
%ADD15R,0.03543X0.07874*%
%ADD16R,0.05236X0.05236*%
%ADD17R,0.07874X0.03543*%
D15*
X212937Y169965D02*
D03*
X207937D02*
D03*
X232937Y103035D02*
D03*
X177937D02*
D03*
X232937Y169965D02*
D03*
X237937Y103035D02*
D03*
X227937D02*
D03*
X222937D02*
D03*
X217937D02*
D03*
X212937D02*
D03*
X207937D02*
D03*
X202937D02*
D03*
X197937D02*
D03*
X192937D02*
D03*
X187937D02*
D03*
X182937D02*
D03*
X172937D02*
D03*
Y169965D02*
D03*
X177937D02*
D03*
X182937D02*
D03*
X187937D02*
D03*
X192937D02*
D03*
X197937D02*
D03*
X202937D02*
D03*
X217937D02*
D03*
X222937D02*
D03*
X227937D02*
D03*
X237937D02*
D03*
D16*
X201185Y133213D02*
D03*
Y140437D02*
D03*
Y147661D02*
D03*
X208410Y133213D02*
D03*
Y140437D02*
D03*
Y147661D02*
D03*
X215634Y133213D02*
D03*
Y140437D02*
D03*
Y147661D02*
D03*
D17*
X169000Y114000D02*
D03*
Y119000D02*
D03*
Y124000D02*
D03*
Y129000D02*
D03*
Y134000D02*
D03*
Y139000D02*
D03*
Y144000D02*
D03*
Y149000D02*
D03*
Y154000D02*
D03*
Y159000D02*
D03*
M02*
