G04*
G04 #@! TF.GenerationSoftware,Altium Limited,Altium Designer,22.4.2 (48)*
G04*
G04 Layer_Color=255*
%FSLAX25Y25*%
%MOIN*%
G70*
G04*
G04 #@! TF.SameCoordinates,09A78814-C825-4F20-898B-51866AA435C6*
G04*
G04*
G04 #@! TF.FilePolarity,Positive*
G04*
G01*
G75*
%ADD33R,0.04921X0.04921*%
%ADD34C,0.04921*%
%ADD39R,0.05118X0.05118*%
%ADD40C,0.05118*%
%ADD41C,0.05512*%
%ADD42R,0.07677X0.07677*%
%ADD43C,0.07677*%
%ADD44R,0.06693X0.06693*%
%ADD45C,0.06693*%
%ADD46R,0.05906X0.05906*%
%ADD47C,0.05906*%
%ADD48R,0.05906X0.05906*%
%ADD49R,0.07559X0.07559*%
%ADD50C,0.07559*%
%ADD51C,0.07874*%
%ADD52R,0.07874X0.07874*%
D33*
X253000Y61461D02*
D03*
D34*
Y31539D02*
D03*
D39*
X213000Y205437D02*
D03*
X133000Y207874D02*
D03*
X84000D02*
D03*
Y115500D02*
D03*
Y161687D02*
D03*
X263000Y205437D02*
D03*
X35000Y207874D02*
D03*
D40*
X213000Y197563D02*
D03*
X84000Y107626D02*
D03*
Y200000D02*
D03*
Y153813D02*
D03*
X263000Y197563D02*
D03*
X133000Y200000D02*
D03*
X35000D02*
D03*
D41*
X149500Y117500D02*
D03*
Y147500D02*
D03*
X102000Y240500D02*
D03*
X149750Y70000D02*
D03*
Y40000D02*
D03*
X121625Y35000D02*
D03*
Y75000D02*
D03*
X206000Y40000D02*
D03*
Y70000D02*
D03*
X93500Y40000D02*
D03*
Y70000D02*
D03*
X26000Y240500D02*
D03*
X56000D02*
D03*
X132000D02*
D03*
D42*
X263000Y258000D02*
D03*
D43*
Y238315D02*
D03*
D44*
X230500Y238000D02*
D03*
D45*
Y248000D02*
D03*
Y258000D02*
D03*
D46*
X194000Y231500D02*
D03*
X24500Y55000D02*
D03*
X128500Y126000D02*
D03*
D47*
X194000Y241500D02*
D03*
X24500Y45000D02*
D03*
X128500Y136000D02*
D03*
Y146000D02*
D03*
Y156000D02*
D03*
X173500Y271000D02*
D03*
X183500D02*
D03*
X163500D02*
D03*
X153500D02*
D03*
X143500D02*
D03*
X133500D02*
D03*
X197500Y18000D02*
D03*
X23205Y103642D02*
D03*
X48795D02*
D03*
Y121358D02*
D03*
X102000Y271000D02*
D03*
X92000D02*
D03*
X82000D02*
D03*
X72000D02*
D03*
X62000D02*
D03*
X52000D02*
D03*
X42000D02*
D03*
X154500Y17500D02*
D03*
X47941Y168358D02*
D03*
X22350D02*
D03*
Y150642D02*
D03*
D48*
X193500Y271000D02*
D03*
X187500Y18000D02*
D03*
X23205Y121358D02*
D03*
X32000Y271000D02*
D03*
X144500Y17500D02*
D03*
X47941Y150642D02*
D03*
D49*
X68000Y62000D02*
D03*
D50*
Y52000D02*
D03*
Y42000D02*
D03*
D51*
X45000Y32909D02*
D03*
D52*
Y74091D02*
D03*
M02*
