M48
;Layer_Color=9474304
;FILE_FORMAT=2:4
INCH,TZ
;TYPE=PLATED
T1F00S00C0.0197
T2F00S00C0.0295
T3F00S00C0.0315
T4F00S00C0.0335
T5F00S00C0.0354
T6F00S00C0.0390
T7F00S00C0.0433
T8F00S00C0.0472
T9F00S00C0.0504
T10F00S00C0.0512
T11F00S00C0.0984
%
T01
X22395Y8500
X21800Y11200
X23294Y11394
X22280Y15510
X19350Y15300
X17794Y14340
X16630Y10300
X16000Y10100
X14900Y10450
X21020Y11920
T02
X25300Y3154
Y6146
T03
X21300Y19756
Y20544
X26300
Y19756
X13300Y20000
Y20787
X8400
Y20000
Y16169
Y15381
Y11550
Y10763
X3500Y20000
Y20787
T04
X9350Y4000
X12162Y3500
X14975Y4000
X20600
Y7000
X14975
X12162Y7500
X9350Y7000
X14950Y11750
Y14750
X5600Y24050
X2600
X10200
X13200
T05
X2450Y4500
Y5500
X14450Y1750
X15450
X18750Y1800
X19750
X12850Y12600
Y13600
Y14600
Y15600
X5200Y27100
X4200
X3200
X6200
X7200
X8200
X9200
X10200
X13350
X14350
X15350
X16350
X17350
X18350
X19350
X19400Y24150
Y23150
T06
X2320Y10364
Y12136
X4880
Y10364
X4794Y15064
Y16836
X2235
Y15064
T07
X23050Y23800
Y24800
Y25800
T08
X4500Y3291
Y7409
T09
X6800Y4200
Y5200
Y6200
T10
X26300Y23832
Y25800
T11
X1150Y1100
X28550
X1150Y28450
X28550
M30
