G04*
G04 #@! TF.GenerationSoftware,Altium Limited,Altium Designer,22.4.2 (48)*
G04*
G04 Layer_Physical_Order=2*
G04 Layer_Color=16711680*
%FSLAX25Y25*%
%MOIN*%
G70*
G04*
G04 #@! TF.SameCoordinates,09A78814-C825-4F20-898B-51866AA435C6*
G04*
G04*
G04 #@! TF.FilePolarity,Positive*
G04*
G01*
G75*
%ADD33R,0.04921X0.04921*%
%ADD34C,0.04921*%
%ADD36C,0.01968*%
%ADD37C,0.01500*%
%ADD38C,0.01181*%
%ADD39R,0.05118X0.05118*%
%ADD40C,0.05118*%
%ADD41C,0.05512*%
%ADD42R,0.07677X0.07677*%
%ADD43C,0.07677*%
%ADD44R,0.06693X0.06693*%
%ADD45C,0.06693*%
%ADD46R,0.05906X0.05906*%
%ADD47C,0.05906*%
%ADD48R,0.05906X0.05906*%
%ADD49R,0.07559X0.07559*%
%ADD50C,0.07559*%
%ADD51C,0.07874*%
%ADD52R,0.07874X0.07874*%
%ADD53C,0.03937*%
G36*
X296929Y571D02*
X1071D01*
Y294929D01*
X296929D01*
Y571D01*
D02*
G37*
%LPC*%
G36*
X286253Y290221D02*
X284747D01*
X283292Y289831D01*
X281987Y289078D01*
X280922Y288013D01*
X280169Y286708D01*
X279779Y285253D01*
Y283747D01*
X280169Y282292D01*
X280922Y280987D01*
X281987Y279922D01*
X283292Y279169D01*
X284747Y278779D01*
X286253D01*
X287708Y279169D01*
X289013Y279922D01*
X290078Y280987D01*
X290831Y282292D01*
X291221Y283747D01*
Y285253D01*
X290831Y286708D01*
X290078Y288013D01*
X289013Y289078D01*
X287708Y289831D01*
X286253Y290221D01*
D02*
G37*
G36*
X12253D02*
X10747D01*
X9292Y289831D01*
X7987Y289078D01*
X6922Y288013D01*
X6169Y286708D01*
X5779Y285253D01*
Y283747D01*
X6169Y282292D01*
X6922Y280987D01*
X7987Y279922D01*
X9292Y279169D01*
X10747Y278779D01*
X12253D01*
X13708Y279169D01*
X15013Y279922D01*
X16078Y280987D01*
X16831Y282292D01*
X17221Y283747D01*
Y285253D01*
X16831Y286708D01*
X16078Y288013D01*
X15013Y289078D01*
X13708Y289831D01*
X12253Y290221D01*
D02*
G37*
G36*
X173994Y274753D02*
X173006D01*
X172052Y274497D01*
X171196Y274003D01*
X170497Y273304D01*
X170003Y272448D01*
X169747Y271494D01*
Y270506D01*
X170003Y269551D01*
X170497Y268696D01*
X171196Y267997D01*
X172052Y267503D01*
X173006Y267247D01*
X173994D01*
X174949Y267503D01*
X175804Y267997D01*
X176503Y268696D01*
X176997Y269551D01*
X177253Y270506D01*
Y271494D01*
X176997Y272448D01*
X176503Y273304D01*
X175804Y274003D01*
X174949Y274497D01*
X173994Y274753D01*
D02*
G37*
G36*
X163994D02*
X163006D01*
X162051Y274497D01*
X161196Y274003D01*
X160497Y273304D01*
X160003Y272448D01*
X159747Y271494D01*
Y270506D01*
X160003Y269551D01*
X160497Y268696D01*
X161196Y267997D01*
X162051Y267503D01*
X163006Y267247D01*
X163994D01*
X164948Y267503D01*
X165804Y267997D01*
X166503Y268696D01*
X166997Y269551D01*
X167253Y270506D01*
Y271494D01*
X166997Y272448D01*
X166503Y273304D01*
X165804Y274003D01*
X164948Y274497D01*
X163994Y274753D01*
D02*
G37*
G36*
X153994D02*
X153006D01*
X152051Y274497D01*
X151196Y274003D01*
X150497Y273304D01*
X150003Y272448D01*
X149747Y271494D01*
Y270506D01*
X150003Y269551D01*
X150497Y268696D01*
X151196Y267997D01*
X152051Y267503D01*
X153006Y267247D01*
X153994D01*
X154948Y267503D01*
X155804Y267997D01*
X156503Y268696D01*
X156997Y269551D01*
X157253Y270506D01*
Y271494D01*
X156997Y272448D01*
X156503Y273304D01*
X155804Y274003D01*
X154948Y274497D01*
X153994Y274753D01*
D02*
G37*
G36*
X143994D02*
X143006D01*
X142051Y274497D01*
X141196Y274003D01*
X140497Y273304D01*
X140003Y272448D01*
X139747Y271494D01*
Y270506D01*
X140003Y269551D01*
X140497Y268696D01*
X141196Y267997D01*
X142051Y267503D01*
X143006Y267247D01*
X143994D01*
X144948Y267503D01*
X145804Y267997D01*
X146503Y268696D01*
X146997Y269551D01*
X147253Y270506D01*
Y271494D01*
X146997Y272448D01*
X146503Y273304D01*
X145804Y274003D01*
X144948Y274497D01*
X143994Y274753D01*
D02*
G37*
G36*
X133994D02*
X133006D01*
X132052Y274497D01*
X131196Y274003D01*
X130497Y273304D01*
X130003Y272448D01*
X129747Y271494D01*
Y270506D01*
X130003Y269551D01*
X130497Y268696D01*
X131196Y267997D01*
X132052Y267503D01*
X133006Y267247D01*
X133994D01*
X134949Y267503D01*
X135804Y267997D01*
X136503Y268696D01*
X136997Y269551D01*
X137253Y270506D01*
Y271494D01*
X136997Y272448D01*
X136503Y273304D01*
X135804Y274003D01*
X134949Y274497D01*
X133994Y274753D01*
D02*
G37*
G36*
X102494D02*
X101506D01*
X100551Y274497D01*
X99696Y274003D01*
X98997Y273304D01*
X98503Y272448D01*
X98247Y271494D01*
Y270506D01*
X98503Y269551D01*
X98997Y268696D01*
X99696Y267997D01*
X100551Y267503D01*
X101506Y267247D01*
X102494D01*
X103448Y267503D01*
X104304Y267997D01*
X105003Y268696D01*
X105497Y269551D01*
X105753Y270506D01*
Y271494D01*
X105497Y272448D01*
X105003Y273304D01*
X104304Y274003D01*
X103448Y274497D01*
X102494Y274753D01*
D02*
G37*
G36*
X92494D02*
X91506D01*
X90552Y274497D01*
X89696Y274003D01*
X88997Y273304D01*
X88503Y272448D01*
X88247Y271494D01*
Y270506D01*
X88503Y269551D01*
X88997Y268696D01*
X89696Y267997D01*
X90552Y267503D01*
X91506Y267247D01*
X92494D01*
X93449Y267503D01*
X94304Y267997D01*
X95003Y268696D01*
X95497Y269551D01*
X95753Y270506D01*
Y271494D01*
X95497Y272448D01*
X95003Y273304D01*
X94304Y274003D01*
X93449Y274497D01*
X92494Y274753D01*
D02*
G37*
G36*
X82494D02*
X81506D01*
X80551Y274497D01*
X79696Y274003D01*
X78997Y273304D01*
X78503Y272448D01*
X78247Y271494D01*
Y270506D01*
X78503Y269551D01*
X78997Y268696D01*
X79696Y267997D01*
X80551Y267503D01*
X81506Y267247D01*
X82494D01*
X83448Y267503D01*
X84304Y267997D01*
X85003Y268696D01*
X85497Y269551D01*
X85753Y270506D01*
Y271494D01*
X85497Y272448D01*
X85003Y273304D01*
X84304Y274003D01*
X83448Y274497D01*
X82494Y274753D01*
D02*
G37*
G36*
X72494D02*
X71506D01*
X70552Y274497D01*
X69696Y274003D01*
X68997Y273304D01*
X68503Y272448D01*
X68247Y271494D01*
Y270506D01*
X68503Y269551D01*
X68997Y268696D01*
X69696Y267997D01*
X70552Y267503D01*
X71506Y267247D01*
X72494D01*
X73448Y267503D01*
X74304Y267997D01*
X75003Y268696D01*
X75497Y269551D01*
X75753Y270506D01*
Y271494D01*
X75497Y272448D01*
X75003Y273304D01*
X74304Y274003D01*
X73448Y274497D01*
X72494Y274753D01*
D02*
G37*
G36*
X62494D02*
X61506D01*
X60552Y274497D01*
X59696Y274003D01*
X58997Y273304D01*
X58503Y272448D01*
X58247Y271494D01*
Y270506D01*
X58503Y269551D01*
X58997Y268696D01*
X59696Y267997D01*
X60552Y267503D01*
X61506Y267247D01*
X62494D01*
X63449Y267503D01*
X64304Y267997D01*
X65003Y268696D01*
X65497Y269551D01*
X65753Y270506D01*
Y271494D01*
X65497Y272448D01*
X65003Y273304D01*
X64304Y274003D01*
X63449Y274497D01*
X62494Y274753D01*
D02*
G37*
G36*
X42494D02*
X41506D01*
X40551Y274497D01*
X39696Y274003D01*
X38997Y273304D01*
X38503Y272448D01*
X38247Y271494D01*
Y270506D01*
X38503Y269551D01*
X38997Y268696D01*
X39696Y267997D01*
X40551Y267503D01*
X41506Y267247D01*
X42494D01*
X43448Y267503D01*
X44304Y267997D01*
X45003Y268696D01*
X45497Y269551D01*
X45753Y270506D01*
Y271494D01*
X45497Y272448D01*
X45003Y273304D01*
X44304Y274003D01*
X43448Y274497D01*
X42494Y274753D01*
D02*
G37*
G36*
X231046Y262146D02*
X229954D01*
X228900Y261864D01*
X227954Y261318D01*
X227182Y260546D01*
X226636Y259600D01*
X226354Y258546D01*
Y257454D01*
X226636Y256399D01*
X227182Y255454D01*
X227954Y254682D01*
X228900Y254136D01*
X229954Y253854D01*
X231046D01*
X232101Y254136D01*
X233046Y254682D01*
X233818Y255454D01*
X234364Y256399D01*
X234647Y257454D01*
Y258546D01*
X234364Y259600D01*
X233818Y260546D01*
X233046Y261318D01*
X232101Y261864D01*
X231046Y262146D01*
D02*
G37*
G36*
X267639Y262639D02*
X258361D01*
Y253361D01*
X267639D01*
Y262639D01*
D02*
G37*
G36*
X231046Y252147D02*
X229954D01*
X228900Y251864D01*
X227954Y251318D01*
X227182Y250546D01*
X226636Y249601D01*
X226354Y248546D01*
Y247454D01*
X226636Y246399D01*
X227182Y245454D01*
X227954Y244682D01*
X228900Y244136D01*
X229954Y243853D01*
X231046D01*
X232101Y244136D01*
X233046Y244682D01*
X233818Y245454D01*
X234364Y246399D01*
X234647Y247454D01*
Y248546D01*
X234364Y249601D01*
X233818Y250546D01*
X233046Y251318D01*
X232101Y251864D01*
X231046Y252147D01*
D02*
G37*
G36*
X27000Y244120D02*
Y241500D01*
X29620D01*
X29500Y241950D01*
X29006Y242806D01*
X28306Y243506D01*
X27450Y244000D01*
X27000Y244120D01*
D02*
G37*
G36*
X25000D02*
X24550Y244000D01*
X23694Y243506D01*
X22995Y242806D01*
X22500Y241950D01*
X22380Y241500D01*
X25000D01*
Y244120D01*
D02*
G37*
G36*
X264000Y243056D02*
Y239315D01*
X267741D01*
X267509Y240183D01*
X266872Y241286D01*
X265971Y242187D01*
X264868Y242824D01*
X264000Y243056D01*
D02*
G37*
G36*
X262000D02*
X261132Y242824D01*
X260029Y242187D01*
X259128Y241286D01*
X258491Y240183D01*
X258259Y239315D01*
X262000D01*
Y243056D01*
D02*
G37*
G36*
X234846Y242347D02*
X231500D01*
Y239000D01*
X234846D01*
Y242347D01*
D02*
G37*
G36*
X229500D02*
X226153D01*
Y239000D01*
X229500D01*
Y242347D01*
D02*
G37*
G36*
X194494Y245253D02*
X193506D01*
X192552Y244997D01*
X191696Y244503D01*
X190997Y243804D01*
X190503Y242949D01*
X190247Y241994D01*
Y241006D01*
X190503Y240052D01*
X190997Y239196D01*
X191696Y238497D01*
X192552Y238003D01*
X193506Y237747D01*
X194494D01*
X195449Y238003D01*
X196304Y238497D01*
X197003Y239196D01*
X197497Y240052D01*
X197753Y241006D01*
Y241994D01*
X197497Y242949D01*
X197003Y243804D01*
X196304Y244503D01*
X195449Y244997D01*
X194494Y245253D01*
D02*
G37*
G36*
X132468Y244056D02*
X131532D01*
X130628Y243814D01*
X129817Y243345D01*
X129155Y242683D01*
X128686Y241873D01*
X128444Y240968D01*
Y240032D01*
X128673Y239178D01*
X116613Y227118D01*
X52826D01*
X52283Y227010D01*
X51824Y226702D01*
X36354Y211233D01*
X31641D01*
Y204515D01*
X38359D01*
Y209228D01*
X53413Y224282D01*
X117200D01*
X117743Y224390D01*
X118202Y224697D01*
X130678Y237173D01*
X131532Y236944D01*
X132468D01*
X133372Y237186D01*
X134183Y237655D01*
X134845Y238317D01*
X135314Y239127D01*
X135556Y240032D01*
Y240968D01*
X135314Y241873D01*
X134845Y242683D01*
X134183Y243345D01*
X133372Y243814D01*
X132468Y244056D01*
D02*
G37*
G36*
X102468D02*
X101532D01*
X100628Y243814D01*
X99817Y243345D01*
X99155Y242683D01*
X98686Y241873D01*
X98444Y240968D01*
Y240032D01*
X98686Y239127D01*
X99155Y238317D01*
X99817Y237655D01*
X100628Y237186D01*
X101532Y236944D01*
X102468D01*
X103373Y237186D01*
X104183Y237655D01*
X104845Y238317D01*
X105314Y239127D01*
X105556Y240032D01*
Y240968D01*
X105314Y241873D01*
X104845Y242683D01*
X104183Y243345D01*
X103373Y243814D01*
X102468Y244056D01*
D02*
G37*
G36*
X56468D02*
X55532D01*
X54628Y243814D01*
X53817Y243345D01*
X53155Y242683D01*
X52686Y241873D01*
X52444Y240968D01*
Y240032D01*
X52686Y239127D01*
X53155Y238317D01*
X53817Y237655D01*
X54628Y237186D01*
X55532Y236944D01*
X56468D01*
X57372Y237186D01*
X58183Y237655D01*
X58845Y238317D01*
X59314Y239127D01*
X59556Y240032D01*
Y240968D01*
X59314Y241873D01*
X58845Y242683D01*
X58183Y243345D01*
X57372Y243814D01*
X56468Y244056D01*
D02*
G37*
G36*
X29620Y239500D02*
X27000D01*
Y236880D01*
X27450Y237000D01*
X28306Y237494D01*
X29006Y238194D01*
X29500Y239050D01*
X29620Y239500D01*
D02*
G37*
G36*
X25000D02*
X22380D01*
X22500Y239050D01*
X22995Y238194D01*
X23694Y237494D01*
X24550Y237000D01*
X25000Y236880D01*
Y239500D01*
D02*
G37*
G36*
X234846Y237000D02*
X231500D01*
Y233653D01*
X234846D01*
Y237000D01*
D02*
G37*
G36*
X229500D02*
X226153D01*
Y233653D01*
X229500D01*
Y237000D01*
D02*
G37*
G36*
X267741Y237315D02*
X264000D01*
Y233574D01*
X264868Y233806D01*
X265971Y234443D01*
X266872Y235344D01*
X267509Y236447D01*
X267741Y237315D01*
D02*
G37*
G36*
X262000D02*
X258259D01*
X258491Y236447D01*
X259128Y235344D01*
X260029Y234443D01*
X261132Y233806D01*
X262000Y233574D01*
Y237315D01*
D02*
G37*
G36*
X197753Y235253D02*
X190247D01*
Y227747D01*
X197753D01*
Y235253D01*
D02*
G37*
G36*
X266359Y208796D02*
X259641D01*
Y202078D01*
X266359D01*
Y208796D01*
D02*
G37*
G36*
X36000Y203417D02*
Y201000D01*
X38417D01*
X38317Y201374D01*
X37848Y202185D01*
X37185Y202848D01*
X36374Y203316D01*
X36000Y203417D01*
D02*
G37*
G36*
X132000D02*
X131626Y203316D01*
X130815Y202848D01*
X130152Y202185D01*
X129683Y201374D01*
X129583Y201000D01*
X132000D01*
Y203417D01*
D02*
G37*
G36*
X34000D02*
X33626Y203316D01*
X32815Y202848D01*
X32152Y202185D01*
X31683Y201374D01*
X31583Y201000D01*
X34000D01*
Y203417D01*
D02*
G37*
G36*
X83000D02*
X82626Y203316D01*
X81815Y202848D01*
X81152Y202185D01*
X80683Y201374D01*
X80583Y201000D01*
X83000D01*
Y203417D01*
D02*
G37*
G36*
X264000Y200980D02*
Y198563D01*
X266417D01*
X266317Y198937D01*
X265848Y199748D01*
X265185Y200411D01*
X264374Y200880D01*
X264000Y200980D01*
D02*
G37*
G36*
X262000D02*
X261626Y200880D01*
X260815Y200411D01*
X260152Y199748D01*
X259683Y198937D01*
X259583Y198563D01*
X262000D01*
Y200980D01*
D02*
G37*
G36*
X87417Y199000D02*
X85000D01*
Y196583D01*
X85374Y196684D01*
X86185Y197152D01*
X86848Y197815D01*
X87317Y198626D01*
X87417Y199000D01*
D02*
G37*
G36*
X38417D02*
X36000D01*
Y196583D01*
X36374Y196684D01*
X37185Y197152D01*
X37848Y197815D01*
X38317Y198626D01*
X38417Y199000D01*
D02*
G37*
G36*
X132000D02*
X129583D01*
X129683Y198626D01*
X130152Y197815D01*
X130815Y197152D01*
X131626Y196684D01*
X132000Y196583D01*
Y199000D01*
D02*
G37*
G36*
X34000D02*
X31583D01*
X31683Y198626D01*
X32152Y197815D01*
X32815Y197152D01*
X33626Y196684D01*
X34000Y196583D01*
Y199000D01*
D02*
G37*
G36*
X83000D02*
X80583D01*
X80683Y198626D01*
X81152Y197815D01*
X81815Y197152D01*
X82626Y196684D01*
X83000Y196583D01*
Y199000D01*
D02*
G37*
G36*
X216417Y196563D02*
X214000D01*
Y194146D01*
X214374Y194246D01*
X215185Y194715D01*
X215848Y195378D01*
X216317Y196189D01*
X216417Y196563D01*
D02*
G37*
G36*
X266417D02*
X264000D01*
Y194146D01*
X264374Y194246D01*
X265185Y194715D01*
X265848Y195378D01*
X266317Y196189D01*
X266417Y196563D01*
D02*
G37*
G36*
X262000D02*
X259583D01*
X259683Y196189D01*
X260152Y195378D01*
X260815Y194715D01*
X261626Y194246D01*
X262000Y194146D01*
Y196563D01*
D02*
G37*
G36*
X106700Y284918D02*
X64500D01*
X63957Y284810D01*
X63498Y284503D01*
X53476Y274481D01*
X53448Y274497D01*
X52494Y274753D01*
X51506D01*
X50551Y274497D01*
X49696Y274003D01*
X48997Y273304D01*
X48503Y272448D01*
X48247Y271494D01*
Y270506D01*
X48503Y269551D01*
X48997Y268696D01*
X49696Y267997D01*
X50551Y267503D01*
X51506Y267247D01*
X52494D01*
X53448Y267503D01*
X54304Y267997D01*
X55003Y268696D01*
X55497Y269551D01*
X55753Y270506D01*
Y271494D01*
X55497Y272448D01*
X55481Y272476D01*
X65087Y282082D01*
X106113D01*
X171697Y216497D01*
X172157Y216190D01*
X172700Y216082D01*
X212413D01*
X224582Y203913D01*
Y169287D01*
X209713Y154418D01*
X195878D01*
X195715Y154700D01*
X195200Y155215D01*
X194569Y155580D01*
X193865Y155769D01*
X193135D01*
X192431Y155580D01*
X191800Y155215D01*
X191285Y154700D01*
X190920Y154069D01*
X190732Y153365D01*
Y152636D01*
X190920Y151931D01*
X191216Y151419D01*
X191022Y150919D01*
X162500D01*
X162500Y150919D01*
X161804Y150781D01*
X161214Y150386D01*
X153647Y142819D01*
X131333D01*
X131126Y143319D01*
X131503Y143696D01*
X131997Y144552D01*
X132253Y145506D01*
Y146494D01*
X132108Y147035D01*
X168754Y183681D01*
X212000D01*
X212000Y183681D01*
X212696Y183819D01*
X213286Y184214D01*
X220786Y191714D01*
X220786Y191714D01*
X221181Y192304D01*
X221319Y193000D01*
Y198937D01*
X221319Y198937D01*
X221181Y199633D01*
X220786Y200223D01*
X220786Y200223D01*
X216359Y204651D01*
Y208796D01*
X209641D01*
Y202319D01*
X209641Y202078D01*
X209248Y201819D01*
X136059D01*
X135848Y202185D01*
X135185Y202848D01*
X134374Y203316D01*
X134000Y203417D01*
Y200000D01*
Y196583D01*
X134374Y196684D01*
X135185Y197152D01*
X135848Y197815D01*
X136059Y198181D01*
X209326D01*
X209441Y198031D01*
Y197094D01*
X209683Y196189D01*
X210152Y195378D01*
X210815Y194715D01*
X211626Y194246D01*
X212000Y194146D01*
Y197563D01*
X213000D01*
Y198563D01*
X216417D01*
X216352Y198805D01*
X216800Y199064D01*
X217681Y198184D01*
Y193754D01*
X211246Y187319D01*
X168000D01*
X168000Y187319D01*
X167304Y187181D01*
X166714Y186786D01*
X166714Y186786D01*
X129535Y149608D01*
X128994Y149753D01*
X128006D01*
X127051Y149497D01*
X126196Y149003D01*
X125497Y148304D01*
X125003Y147449D01*
X124747Y146494D01*
Y145506D01*
X125003Y144552D01*
X125497Y143696D01*
X125874Y143319D01*
X125666Y142819D01*
X124253D01*
X112319Y154753D01*
Y181374D01*
X112319Y181374D01*
X112181Y182070D01*
X111786Y182660D01*
X88854Y205593D01*
X89045Y206055D01*
X129641D01*
Y204515D01*
X136359D01*
Y211233D01*
X129641D01*
Y209693D01*
X87359D01*
Y211233D01*
X80641D01*
Y204515D01*
X84786D01*
X85501Y203800D01*
X85242Y203352D01*
X85000Y203417D01*
Y201000D01*
X87417D01*
X87352Y201242D01*
X87800Y201501D01*
X108681Y180621D01*
Y154000D01*
X108681Y154000D01*
X108819Y153304D01*
X109214Y152714D01*
X122214Y139714D01*
X122214Y139714D01*
X122804Y139319D01*
X123500Y139181D01*
X123500Y139181D01*
X125666D01*
X125874Y138681D01*
X125497Y138304D01*
X125003Y137449D01*
X124747Y136494D01*
Y135506D01*
X125003Y134552D01*
X125497Y133696D01*
X126196Y132997D01*
X127051Y132503D01*
X128006Y132247D01*
X128994D01*
X129948Y132503D01*
X130804Y132997D01*
X131503Y133696D01*
X131997Y134552D01*
X132005Y134582D01*
X202713D01*
X216582Y120713D01*
Y114378D01*
X216300Y114215D01*
X215785Y113700D01*
X215420Y113069D01*
X215231Y112364D01*
Y111635D01*
X215420Y110931D01*
X215785Y110300D01*
X216300Y109785D01*
X216931Y109420D01*
X217635Y109231D01*
X218365D01*
X219069Y109420D01*
X219700Y109785D01*
X220215Y110300D01*
X220580Y110931D01*
X220768Y111635D01*
Y112364D01*
X220580Y113069D01*
X220215Y113700D01*
X219700Y114215D01*
X219418Y114378D01*
Y121300D01*
X219310Y121843D01*
X219003Y122302D01*
X204303Y137003D01*
X203843Y137310D01*
X203300Y137418D01*
X132005D01*
X131997Y137449D01*
X131503Y138304D01*
X131126Y138681D01*
X131333Y139181D01*
X154400D01*
X154400Y139181D01*
X155096Y139319D01*
X155686Y139714D01*
X163253Y147281D01*
X216800D01*
X216800Y147281D01*
X217496Y147419D01*
X218086Y147814D01*
X222604Y152331D01*
X223165D01*
X223869Y152520D01*
X224500Y152885D01*
X225015Y153400D01*
X225380Y154031D01*
X225569Y154736D01*
Y155464D01*
X225380Y156169D01*
X225015Y156800D01*
X224500Y157315D01*
X223869Y157680D01*
X223165Y157869D01*
X222435D01*
X221731Y157680D01*
X221100Y157315D01*
X220585Y156800D01*
X220220Y156169D01*
X220031Y155464D01*
Y154904D01*
X216047Y150919D01*
X196409D01*
X196145Y151419D01*
X196257Y151582D01*
X210300D01*
X210843Y151690D01*
X211302Y151997D01*
X227003Y167698D01*
X227310Y168157D01*
X227418Y168700D01*
Y204500D01*
X227310Y205043D01*
X227003Y205503D01*
X214002Y218502D01*
X213543Y218810D01*
X213000Y218918D01*
X173287D01*
X107703Y284503D01*
X107243Y284810D01*
X106700Y284918D01*
D02*
G37*
G36*
X22844Y172111D02*
X21856D01*
X20902Y171855D01*
X20046Y171361D01*
X19347Y170662D01*
X18853Y169807D01*
X18598Y168852D01*
Y167864D01*
X18853Y166910D01*
X19347Y166054D01*
X20046Y165355D01*
X20902Y164861D01*
X21856Y164605D01*
X22844D01*
X23799Y164861D01*
X24655Y165355D01*
X25353Y166054D01*
X25847Y166910D01*
X26103Y167864D01*
Y168852D01*
X25847Y169807D01*
X25353Y170662D01*
X24655Y171361D01*
X23799Y171855D01*
X22844Y172111D01*
D02*
G37*
G36*
X87359Y165046D02*
X80641D01*
Y158328D01*
X87359D01*
Y165046D01*
D02*
G37*
G36*
X129500Y159824D02*
Y157000D01*
X132324D01*
X132183Y157526D01*
X131663Y158427D01*
X130927Y159163D01*
X130026Y159683D01*
X129500Y159824D01*
D02*
G37*
G36*
X127500D02*
X126974Y159683D01*
X126073Y159163D01*
X125337Y158427D01*
X124817Y157526D01*
X124676Y157000D01*
X127500D01*
Y159824D01*
D02*
G37*
G36*
X85000Y157230D02*
Y154813D01*
X87417D01*
X87317Y155187D01*
X86848Y155998D01*
X86185Y156661D01*
X85374Y157130D01*
X85000Y157230D01*
D02*
G37*
G36*
X83000D02*
X82626Y157130D01*
X81815Y156661D01*
X81152Y155998D01*
X80683Y155187D01*
X80583Y154813D01*
X83000D01*
Y157230D01*
D02*
G37*
G36*
X132324Y155000D02*
X129500D01*
Y152176D01*
X130026Y152317D01*
X130927Y152837D01*
X131663Y153573D01*
X132183Y154474D01*
X132324Y155000D01*
D02*
G37*
G36*
X127500D02*
X124676D01*
X124817Y154474D01*
X125337Y153573D01*
X126073Y152837D01*
X126974Y152317D01*
X127500Y152176D01*
Y155000D01*
D02*
G37*
G36*
X51894Y154595D02*
X48941D01*
Y151642D01*
X51894D01*
Y154595D01*
D02*
G37*
G36*
X46941D02*
X43988D01*
Y151642D01*
X46941D01*
Y154595D01*
D02*
G37*
G36*
X87417Y152813D02*
X85000D01*
Y150396D01*
X85374Y150496D01*
X86185Y150965D01*
X86848Y151628D01*
X87317Y152439D01*
X87417Y152813D01*
D02*
G37*
G36*
X83000D02*
X80583D01*
X80683Y152439D01*
X81152Y151628D01*
X81815Y150965D01*
X82626Y150496D01*
X83000Y150396D01*
Y152813D01*
D02*
G37*
G36*
X150500Y151120D02*
Y148500D01*
X153120D01*
X153000Y148950D01*
X152506Y149806D01*
X151806Y150505D01*
X150950Y151000D01*
X150500Y151120D01*
D02*
G37*
G36*
X148500D02*
X148050Y151000D01*
X147194Y150505D01*
X146494Y149806D01*
X146000Y148950D01*
X145880Y148500D01*
X148500D01*
Y151120D01*
D02*
G37*
G36*
X22844Y154395D02*
X21856D01*
X20902Y154139D01*
X20046Y153645D01*
X19347Y152946D01*
X18853Y152090D01*
X18598Y151136D01*
Y150148D01*
X18853Y149193D01*
X19347Y148338D01*
X20046Y147639D01*
X20902Y147145D01*
X21856Y146889D01*
X22844D01*
X23799Y147145D01*
X24655Y147639D01*
X25353Y148338D01*
X25847Y149193D01*
X26103Y150148D01*
Y151136D01*
X25847Y152090D01*
X25353Y152946D01*
X24655Y153645D01*
X23799Y154139D01*
X22844Y154395D01*
D02*
G37*
G36*
X51894Y149642D02*
X48941D01*
Y146689D01*
X51894D01*
Y149642D01*
D02*
G37*
G36*
X46941D02*
X43988D01*
Y146689D01*
X46941D01*
Y149642D01*
D02*
G37*
G36*
X153120Y146500D02*
X150500D01*
Y143880D01*
X150950Y144000D01*
X151806Y144494D01*
X152506Y145194D01*
X153000Y146050D01*
X153120Y146500D01*
D02*
G37*
G36*
X148500D02*
X145880D01*
X146000Y146050D01*
X146494Y145194D01*
X147194Y144494D01*
X148050Y144000D01*
X148500Y143880D01*
Y146500D01*
D02*
G37*
G36*
X27158Y125311D02*
X24205D01*
Y122358D01*
X27158D01*
Y125311D01*
D02*
G37*
G36*
X22205D02*
X19252D01*
Y122358D01*
X22205D01*
Y125311D01*
D02*
G37*
G36*
X49289Y125111D02*
X48301D01*
X47347Y124855D01*
X46491Y124361D01*
X45792Y123662D01*
X45298Y122807D01*
X45042Y121852D01*
Y120864D01*
X45298Y119910D01*
X45792Y119054D01*
X46491Y118355D01*
X47347Y117861D01*
X48301Y117605D01*
X49289D01*
X50244Y117861D01*
X51099Y118355D01*
X51798Y119054D01*
X52292Y119910D01*
X52548Y120864D01*
Y121852D01*
X52292Y122807D01*
X51798Y123662D01*
X51099Y124361D01*
X50244Y124855D01*
X49289Y125111D01*
D02*
G37*
G36*
X27158Y120358D02*
X24205D01*
Y117405D01*
X27158D01*
Y120358D01*
D02*
G37*
G36*
X22205D02*
X19252D01*
Y117405D01*
X22205D01*
Y120358D01*
D02*
G37*
G36*
X232500Y280080D02*
X191000D01*
X190395Y279960D01*
X189883Y279618D01*
X184801Y274536D01*
X183994Y274753D01*
X183006D01*
X182052Y274497D01*
X181196Y274003D01*
X180497Y273304D01*
X180003Y272448D01*
X179747Y271494D01*
Y270506D01*
X180003Y269551D01*
X180497Y268696D01*
X181196Y267997D01*
X182052Y267503D01*
X183006Y267247D01*
X183994D01*
X184949Y267503D01*
X185804Y267997D01*
X186503Y268696D01*
X186997Y269551D01*
X187253Y270506D01*
Y271494D01*
X187036Y272301D01*
X189247Y274512D01*
X189747Y274305D01*
Y267247D01*
X191920D01*
Y262800D01*
X192040Y262195D01*
X192383Y261683D01*
X229420Y224645D01*
Y153655D01*
X220745Y144980D01*
X180221D01*
X180152Y145100D01*
X179637Y145615D01*
X179006Y145980D01*
X178302Y146168D01*
X177573D01*
X176868Y145980D01*
X176237Y145615D01*
X175722Y145100D01*
X175357Y144469D01*
X175169Y143764D01*
Y143035D01*
X175357Y142331D01*
X175722Y141700D01*
X176237Y141185D01*
X176868Y140820D01*
X177573Y140631D01*
X178302D01*
X179006Y140820D01*
X179637Y141185D01*
X180152Y141700D01*
X180221Y141820D01*
X221400D01*
X222005Y141940D01*
X222517Y142282D01*
X232118Y151883D01*
X232460Y152395D01*
X232580Y153000D01*
Y225300D01*
X232460Y225905D01*
X232118Y226417D01*
X195080Y263455D01*
Y267247D01*
X197253D01*
Y274753D01*
X190195D01*
X189988Y275253D01*
X191655Y276920D01*
X231845D01*
X241420Y267345D01*
Y218655D01*
X238383Y215617D01*
X238040Y215105D01*
X237920Y214500D01*
Y121155D01*
X233435Y116670D01*
X233301Y116706D01*
X232573D01*
X231868Y116517D01*
X231237Y116152D01*
X230722Y115637D01*
X230357Y115006D01*
X230169Y114302D01*
Y113573D01*
X230357Y112868D01*
X230722Y112237D01*
X231237Y111722D01*
X231868Y111357D01*
X232573Y111169D01*
X233301D01*
X234006Y111357D01*
X234637Y111722D01*
X235152Y112237D01*
X235517Y112868D01*
X235705Y113573D01*
Y114302D01*
X235670Y114435D01*
X240617Y119383D01*
X240960Y119895D01*
X241080Y120500D01*
Y213845D01*
X244117Y216882D01*
X244460Y217395D01*
X244580Y218000D01*
Y268000D01*
X244460Y268605D01*
X244117Y269117D01*
X233617Y279618D01*
X233105Y279960D01*
X232500Y280080D01*
D02*
G37*
G36*
X132253Y129753D02*
X124747D01*
Y122247D01*
X132253D01*
Y124420D01*
X202745D01*
X207467Y119698D01*
X207432Y119564D01*
Y118835D01*
X207620Y118131D01*
X207985Y117500D01*
X208500Y116985D01*
X209131Y116620D01*
X209836Y116431D01*
X210564D01*
X211269Y116620D01*
X211900Y116985D01*
X212415Y117500D01*
X212780Y118131D01*
X212968Y118835D01*
Y119564D01*
X212780Y120269D01*
X212415Y120900D01*
X211900Y121415D01*
X211269Y121780D01*
X210564Y121968D01*
X209836D01*
X209702Y121933D01*
X204518Y127118D01*
X204005Y127460D01*
X203400Y127580D01*
X132253D01*
Y129753D01*
D02*
G37*
G36*
X85000Y111043D02*
Y108626D01*
X87417D01*
X87317Y109000D01*
X86848Y109811D01*
X86185Y110474D01*
X85374Y110942D01*
X85000Y111043D01*
D02*
G37*
G36*
X83000D02*
X82626Y110942D01*
X81815Y110474D01*
X81152Y109811D01*
X80683Y109000D01*
X80583Y108626D01*
X83000D01*
Y111043D01*
D02*
G37*
G36*
X87417Y106626D02*
X85000D01*
Y104209D01*
X85374Y104309D01*
X86185Y104778D01*
X86848Y105441D01*
X87317Y106252D01*
X87417Y106626D01*
D02*
G37*
G36*
X83000D02*
X80583D01*
X80683Y106252D01*
X81152Y105441D01*
X81815Y104778D01*
X82626Y104309D01*
X83000Y104209D01*
Y106626D01*
D02*
G37*
G36*
X35753Y274753D02*
X28247D01*
Y269482D01*
X15382Y256617D01*
X15040Y256105D01*
X14920Y255500D01*
Y206500D01*
X15040Y205895D01*
X15382Y205382D01*
X48154Y172611D01*
X47947Y172111D01*
X47447D01*
X46492Y171855D01*
X45637Y171361D01*
X44938Y170662D01*
X44444Y169807D01*
X44188Y168852D01*
Y167864D01*
X44444Y166910D01*
X44938Y166054D01*
X45637Y165355D01*
X46492Y164861D01*
X47447Y164605D01*
X48435D01*
X49389Y164861D01*
X50245Y165355D01*
X50944Y166054D01*
X51438Y166910D01*
X51694Y167864D01*
Y168364D01*
X52194Y168571D01*
X117383Y103383D01*
X117895Y103040D01*
X118500Y102920D01*
X146716D01*
X146785Y102800D01*
X147300Y102285D01*
X147931Y101920D01*
X148635Y101732D01*
X149364D01*
X150069Y101920D01*
X150700Y102285D01*
X151215Y102800D01*
X151580Y103431D01*
X151769Y104136D01*
Y104865D01*
X151580Y105569D01*
X151215Y106200D01*
X150700Y106715D01*
X150069Y107080D01*
X149364Y107269D01*
X148635D01*
X147931Y107080D01*
X147300Y106715D01*
X146785Y106200D01*
X146716Y106080D01*
X119155D01*
X18080Y207155D01*
Y254845D01*
X30482Y267247D01*
X35753D01*
Y274753D01*
D02*
G37*
G36*
X267425Y172749D02*
X242622D01*
X242310Y172687D01*
X242045Y172510D01*
X241869Y172245D01*
X241807Y171933D01*
Y101067D01*
X241869Y100755D01*
X242045Y100490D01*
X242310Y100313D01*
X242622Y100251D01*
X267425D01*
X267737Y100313D01*
X268002Y100490D01*
X268179Y100755D01*
X268241Y101067D01*
Y171933D01*
X268179Y172245D01*
X268002Y172510D01*
X267737Y172687D01*
X267425Y172749D01*
D02*
G37*
G36*
X87359Y118859D02*
X80641D01*
Y112141D01*
X87359D01*
Y113920D01*
X95845D01*
X113883Y95882D01*
X114395Y95540D01*
X115000Y95420D01*
X148500D01*
X149105Y95540D01*
X149618Y95882D01*
X158173Y104438D01*
X162627D01*
X163567Y103498D01*
X163531Y103365D01*
Y102636D01*
X163720Y101931D01*
X164085Y101300D01*
X164600Y100785D01*
X165231Y100420D01*
X165936Y100232D01*
X166665D01*
X167369Y100420D01*
X168000Y100785D01*
X168515Y101300D01*
X168880Y101931D01*
X169069Y102636D01*
Y103365D01*
X168880Y104069D01*
X168515Y104700D01*
X168000Y105215D01*
X167369Y105580D01*
X166665Y105769D01*
X165936D01*
X165802Y105733D01*
X164399Y107136D01*
X163886Y107479D01*
X163281Y107599D01*
X157519D01*
X156914Y107479D01*
X156401Y107136D01*
X147845Y98580D01*
X115655D01*
X97618Y116618D01*
X97105Y116960D01*
X96500Y117080D01*
X87359D01*
Y118859D01*
D02*
G37*
G36*
X49289Y107395D02*
X48301D01*
X47347Y107139D01*
X46491Y106645D01*
X45792Y105946D01*
X45298Y105090D01*
X45042Y104136D01*
Y103148D01*
X45298Y102193D01*
X45792Y101338D01*
X46491Y100639D01*
X47347Y100145D01*
X48301Y99889D01*
X49289D01*
X50244Y100145D01*
X51099Y100639D01*
X51798Y101338D01*
X52292Y102193D01*
X52548Y103148D01*
Y104136D01*
X52292Y105090D01*
X51798Y105946D01*
X51099Y106645D01*
X50244Y107139D01*
X49289Y107395D01*
D02*
G37*
G36*
X23699D02*
X22711D01*
X21756Y107139D01*
X20901Y106645D01*
X20202Y105946D01*
X19708Y105090D01*
X19452Y104136D01*
Y103148D01*
X19708Y102193D01*
X20202Y101338D01*
X20901Y100639D01*
X21756Y100145D01*
X22711Y99889D01*
X23699D01*
X24653Y100145D01*
X25509Y100639D01*
X26208Y101338D01*
X26702Y102193D01*
X26957Y103148D01*
Y104136D01*
X26702Y105090D01*
X26208Y105946D01*
X25509Y106645D01*
X24653Y107139D01*
X23699Y107395D01*
D02*
G37*
G36*
X160364Y103769D02*
X159635D01*
X158931Y103580D01*
X158300Y103215D01*
X157785Y102700D01*
X157420Y102069D01*
X157231Y101365D01*
Y100636D01*
X157373Y100108D01*
X133845Y76580D01*
X124819D01*
X124470Y77183D01*
X123808Y77845D01*
X122997Y78314D01*
X122093Y78556D01*
X121157D01*
X120253Y78314D01*
X119442Y77845D01*
X118780Y77183D01*
X118311Y76372D01*
X118069Y75468D01*
Y74532D01*
X118311Y73628D01*
X118780Y72817D01*
X119442Y72155D01*
X120253Y71686D01*
X121157Y71444D01*
X122093D01*
X122997Y71686D01*
X123808Y72155D01*
X124470Y72817D01*
X124819Y73420D01*
X134500D01*
X135105Y73540D01*
X135617Y73883D01*
X159967Y98232D01*
X160364D01*
X161069Y98420D01*
X161700Y98785D01*
X162215Y99300D01*
X162580Y99931D01*
X162768Y100636D01*
Y101365D01*
X162580Y102069D01*
X162215Y102700D01*
X161700Y103215D01*
X161069Y103580D01*
X160364Y103769D01*
D02*
G37*
G36*
X49737Y78828D02*
X40263D01*
Y69354D01*
X49737D01*
Y78828D01*
D02*
G37*
G36*
X206468Y73556D02*
X205532D01*
X204627Y73314D01*
X203817Y72845D01*
X203155Y72183D01*
X202686Y71372D01*
X202444Y70468D01*
Y69532D01*
X202686Y68628D01*
X203155Y67817D01*
X203817Y67155D01*
X204627Y66686D01*
X205532Y66444D01*
X206468D01*
X207372Y66686D01*
X208183Y67155D01*
X208845Y67817D01*
X209314Y68628D01*
X209556Y69532D01*
Y70468D01*
X209314Y71372D01*
X208845Y72183D01*
X208183Y72845D01*
X207372Y73314D01*
X206468Y73556D01*
D02*
G37*
G36*
X93968D02*
X93032D01*
X92128Y73314D01*
X91317Y72845D01*
X90655Y72183D01*
X90186Y71372D01*
X89944Y70468D01*
Y69532D01*
X90186Y68628D01*
X90655Y67817D01*
X91317Y67155D01*
X92128Y66686D01*
X93032Y66444D01*
X93968D01*
X94872Y66686D01*
X95683Y67155D01*
X96345Y67817D01*
X96814Y68628D01*
X97056Y69532D01*
Y70468D01*
X96814Y71372D01*
X96345Y72183D01*
X95683Y72845D01*
X94872Y73314D01*
X93968Y73556D01*
D02*
G37*
G36*
X256461Y64921D02*
X254000D01*
Y62461D01*
X256461D01*
Y64921D01*
D02*
G37*
G36*
X252000D02*
X249539D01*
Y62461D01*
X252000D01*
Y64921D01*
D02*
G37*
G36*
X256461Y60461D02*
X254000D01*
Y58000D01*
X256461D01*
Y60461D01*
D02*
G37*
G36*
X252000D02*
X249539D01*
Y58000D01*
X252000D01*
Y60461D01*
D02*
G37*
G36*
X72579Y66580D02*
X63420D01*
Y57420D01*
X72579D01*
Y66580D01*
D02*
G37*
G36*
X28253Y58753D02*
X20747D01*
Y51247D01*
X28253D01*
Y58753D01*
D02*
G37*
G36*
X68603Y56580D02*
X67397D01*
X66232Y56267D01*
X65188Y55664D01*
X64336Y54812D01*
X63733Y53768D01*
X63420Y52603D01*
Y51397D01*
X63733Y50232D01*
X64336Y49188D01*
X65188Y48335D01*
X66232Y47732D01*
X67397Y47420D01*
X68603D01*
X69768Y47732D01*
X70812Y48335D01*
X71665Y49188D01*
X72267Y50232D01*
X72579Y51397D01*
Y52603D01*
X72267Y53768D01*
X71665Y54812D01*
X70812Y55664D01*
X69768Y56267D01*
X68603Y56580D01*
D02*
G37*
G36*
X69000Y46680D02*
Y43000D01*
X72680D01*
X72454Y43845D01*
X71825Y44935D01*
X70935Y45825D01*
X69845Y46454D01*
X69000Y46680D01*
D02*
G37*
G36*
X67000D02*
X66155Y46454D01*
X65065Y45825D01*
X64175Y44935D01*
X63546Y43845D01*
X63320Y43000D01*
X67000D01*
Y46680D01*
D02*
G37*
G36*
X24994Y48753D02*
X24006D01*
X23052Y48497D01*
X22196Y48003D01*
X21497Y47304D01*
X21003Y46448D01*
X20747Y45494D01*
Y44506D01*
X21003Y43551D01*
X21497Y42696D01*
X22196Y41997D01*
X23052Y41503D01*
X24006Y41247D01*
X24994D01*
X25949Y41503D01*
X26804Y41997D01*
X27503Y42696D01*
X27997Y43551D01*
X28253Y44506D01*
Y45494D01*
X27997Y46448D01*
X27503Y47304D01*
X26804Y48003D01*
X25949Y48497D01*
X24994Y48753D01*
D02*
G37*
G36*
X150750Y43620D02*
Y41000D01*
X153370D01*
X153250Y41450D01*
X152755Y42306D01*
X152056Y43005D01*
X151200Y43500D01*
X150750Y43620D01*
D02*
G37*
G36*
X148750D02*
X148300Y43500D01*
X147444Y43005D01*
X146745Y42306D01*
X146250Y41450D01*
X146130Y41000D01*
X148750D01*
Y43620D01*
D02*
G37*
G36*
X72680Y41000D02*
X69000D01*
Y37320D01*
X69845Y37546D01*
X70935Y38175D01*
X71825Y39065D01*
X72454Y40155D01*
X72680Y41000D01*
D02*
G37*
G36*
X67000D02*
X63320D01*
X63546Y40155D01*
X64175Y39065D01*
X65065Y38175D01*
X66155Y37546D01*
X67000Y37320D01*
Y41000D01*
D02*
G37*
G36*
X224318Y87769D02*
X223589D01*
X222885Y87580D01*
X222253Y87215D01*
X221738Y86700D01*
X221669Y86580D01*
X164750D01*
X164145Y86460D01*
X163633Y86118D01*
X150891Y73376D01*
X150218Y73556D01*
X149282D01*
X148378Y73314D01*
X147567Y72845D01*
X146905Y72183D01*
X146436Y71372D01*
X146194Y70468D01*
Y69532D01*
X146436Y68628D01*
X146905Y67817D01*
X147567Y67155D01*
X148378Y66686D01*
X149282Y66444D01*
X150218D01*
X151122Y66686D01*
X151933Y67155D01*
X152595Y67817D01*
X153064Y68628D01*
X153306Y69532D01*
Y70468D01*
X153126Y71141D01*
X165405Y83420D01*
X221669D01*
X221738Y83300D01*
X222253Y82785D01*
X222420Y82689D01*
Y65555D01*
X175945Y19080D01*
X157921D01*
X157503Y19804D01*
X156804Y20503D01*
X155948Y20997D01*
X154994Y21253D01*
X154006D01*
X153051Y20997D01*
X152196Y20503D01*
X151497Y19804D01*
X151003Y18948D01*
X150747Y17994D01*
Y17006D01*
X151003Y16051D01*
X151497Y15196D01*
X152196Y14497D01*
X153051Y14003D01*
X154006Y13747D01*
X154994D01*
X155948Y14003D01*
X156804Y14497D01*
X157503Y15196D01*
X157921Y15920D01*
X176600D01*
X177205Y16040D01*
X177717Y16383D01*
X183360Y22025D01*
X183747Y21705D01*
X183747Y21272D01*
Y14247D01*
X191253D01*
Y21753D01*
X184245D01*
X183795Y21753D01*
X183475Y22140D01*
X202038Y40703D01*
X202094Y40670D01*
X202444Y40402D01*
Y39532D01*
X202686Y38627D01*
X203155Y37817D01*
X203817Y37155D01*
X204627Y36686D01*
X205532Y36444D01*
X206468D01*
X207372Y36686D01*
X208183Y37155D01*
X208845Y37817D01*
X209314Y38627D01*
X209556Y39532D01*
Y40468D01*
X209314Y41372D01*
X208845Y42183D01*
X208183Y42845D01*
X207372Y43314D01*
X206468Y43556D01*
X205598D01*
X205330Y43906D01*
X205297Y43962D01*
X225117Y63783D01*
X225460Y64295D01*
X225580Y64900D01*
Y82743D01*
X225653Y82785D01*
X226169Y83300D01*
X226533Y83931D01*
X226722Y84636D01*
Y85365D01*
X226533Y86069D01*
X226169Y86700D01*
X225653Y87215D01*
X225022Y87580D01*
X224318Y87769D01*
D02*
G37*
G36*
X93968Y43556D02*
X93032D01*
X92128Y43314D01*
X91317Y42845D01*
X90655Y42183D01*
X90186Y41372D01*
X89944Y40468D01*
Y39532D01*
X90186Y38627D01*
X90655Y37817D01*
X91317Y37155D01*
X92128Y36686D01*
X93032Y36444D01*
X93968D01*
X94872Y36686D01*
X95683Y37155D01*
X96345Y37817D01*
X96814Y38627D01*
X97056Y39532D01*
Y40468D01*
X96814Y41372D01*
X96345Y42183D01*
X95683Y42845D01*
X94872Y43314D01*
X93968Y43556D01*
D02*
G37*
G36*
X153370Y39000D02*
X150750D01*
Y36380D01*
X151200Y36500D01*
X152056Y36994D01*
X152755Y37694D01*
X153250Y38550D01*
X153370Y39000D01*
D02*
G37*
G36*
X148750D02*
X146130D01*
X146250Y38550D01*
X146745Y37694D01*
X147444Y36994D01*
X148300Y36500D01*
X148750Y36380D01*
Y39000D01*
D02*
G37*
G36*
X122625Y38620D02*
Y36000D01*
X125245D01*
X125125Y36450D01*
X124630Y37306D01*
X123931Y38006D01*
X123075Y38500D01*
X122625Y38620D01*
D02*
G37*
G36*
X120625D02*
X120175Y38500D01*
X119319Y38006D01*
X118620Y37306D01*
X118125Y36450D01*
X118005Y36000D01*
X120625D01*
Y38620D01*
D02*
G37*
G36*
X125245Y34000D02*
X122625D01*
Y31380D01*
X123075Y31500D01*
X123931Y31995D01*
X124630Y32694D01*
X125125Y33550D01*
X125245Y34000D01*
D02*
G37*
G36*
X120625D02*
X118005D01*
X118125Y33550D01*
X118620Y32694D01*
X119319Y31995D01*
X120175Y31500D01*
X120625Y31380D01*
Y34000D01*
D02*
G37*
G36*
X253429Y34800D02*
X252571D01*
X251741Y34578D01*
X250998Y34149D01*
X250391Y33542D01*
X249962Y32798D01*
X249739Y31969D01*
Y31110D01*
X249962Y30281D01*
X250391Y29537D01*
X250998Y28930D01*
X251741Y28501D01*
X252571Y28279D01*
X253429D01*
X254259Y28501D01*
X255002Y28930D01*
X255609Y29537D01*
X256038Y30281D01*
X256261Y31110D01*
Y31969D01*
X256038Y32798D01*
X255609Y33542D01*
X255002Y34149D01*
X254259Y34578D01*
X253429Y34800D01*
D02*
G37*
G36*
X45624Y37646D02*
X44376D01*
X43172Y37324D01*
X42091Y36700D01*
X41209Y35818D01*
X40586Y34738D01*
X40263Y33533D01*
Y32286D01*
X40586Y31081D01*
X41209Y30001D01*
X42091Y29119D01*
X43172Y28495D01*
X44376Y28172D01*
X45624D01*
X46828Y28495D01*
X47909Y29119D01*
X48791Y30001D01*
X49414Y31081D01*
X49737Y32286D01*
Y33533D01*
X49414Y34738D01*
X48791Y35818D01*
X47909Y36700D01*
X46828Y37324D01*
X45624Y37646D01*
D02*
G37*
G36*
X149968Y121056D02*
X149032D01*
X148127Y120814D01*
X147317Y120345D01*
X146655Y119683D01*
X146186Y118872D01*
X145944Y117968D01*
Y117032D01*
X146186Y116128D01*
X146655Y115317D01*
X147317Y114655D01*
X148127Y114186D01*
X149032Y113944D01*
X149968D01*
X150873Y114186D01*
X151683Y114655D01*
X152345Y115317D01*
X152787Y116082D01*
X203913D01*
X234082Y85913D01*
Y56587D01*
X198976Y21481D01*
X198949Y21497D01*
X197994Y21753D01*
X197006D01*
X196052Y21497D01*
X195196Y21003D01*
X194497Y20304D01*
X194003Y19448D01*
X193747Y18494D01*
Y17506D01*
X194003Y16552D01*
X194497Y15696D01*
X195196Y14997D01*
X196052Y14503D01*
X197006Y14247D01*
X197994D01*
X198949Y14503D01*
X199804Y14997D01*
X200503Y15696D01*
X200997Y16552D01*
X201253Y17506D01*
Y18494D01*
X200997Y19448D01*
X200981Y19476D01*
X236503Y54997D01*
X236810Y55457D01*
X236918Y56000D01*
Y86500D01*
X236810Y87043D01*
X236503Y87502D01*
X205503Y118502D01*
X205043Y118810D01*
X204500Y118918D01*
X152787D01*
X152345Y119683D01*
X151683Y120345D01*
X150873Y120814D01*
X149968Y121056D01*
D02*
G37*
G36*
X148253Y21253D02*
X140747D01*
Y13747D01*
X148253D01*
Y21253D01*
D02*
G37*
G36*
X286253Y16721D02*
X284747D01*
X283292Y16331D01*
X281987Y15578D01*
X280922Y14513D01*
X280169Y13208D01*
X279779Y11753D01*
Y10247D01*
X280169Y8792D01*
X280922Y7487D01*
X281987Y6422D01*
X283292Y5669D01*
X284747Y5279D01*
X286253D01*
X287708Y5669D01*
X289013Y6422D01*
X290078Y7487D01*
X290831Y8792D01*
X291221Y10247D01*
Y11753D01*
X290831Y13208D01*
X290078Y14513D01*
X289013Y15578D01*
X287708Y16331D01*
X286253Y16721D01*
D02*
G37*
G36*
X12253D02*
X10747D01*
X9292Y16331D01*
X7987Y15578D01*
X6922Y14513D01*
X6169Y13208D01*
X5779Y11753D01*
Y10247D01*
X6169Y8792D01*
X6922Y7487D01*
X7987Y6422D01*
X9292Y5669D01*
X10747Y5279D01*
X12253D01*
X13708Y5669D01*
X15013Y6422D01*
X16078Y7487D01*
X16831Y8792D01*
X17221Y10247D01*
Y11753D01*
X16831Y13208D01*
X16078Y14513D01*
X15013Y15578D01*
X13708Y16331D01*
X12253Y16721D01*
D02*
G37*
%LPD*%
D33*
X253000Y61461D02*
D03*
D34*
Y31539D02*
D03*
D36*
X154400Y141000D02*
X162500Y149100D01*
X123500Y141000D02*
X154400D01*
X110500Y154000D02*
X123500Y141000D01*
X110500Y154000D02*
Y181374D01*
X213000Y205437D02*
X219500Y198937D01*
X212000Y185500D02*
X219500Y193000D01*
Y198937D01*
X168000Y185500D02*
X212000D01*
X133000Y200000D02*
X210563D01*
X128500Y146000D02*
X168000Y185500D01*
X210563Y200000D02*
X213000Y197563D01*
X84000Y207874D02*
X110500Y181374D01*
X216800Y149100D02*
X222800Y155100D01*
X162500Y149100D02*
X216800D01*
X84000Y207874D02*
X133000D01*
D37*
X231000Y153000D02*
Y225300D01*
X193500Y262800D02*
X231000Y225300D01*
X221400Y143400D02*
X231000Y153000D01*
X148500Y97000D02*
X157519Y106019D01*
X115000Y97000D02*
X148500D01*
X157519Y106019D02*
X163281D01*
X134500Y75000D02*
X160000Y100500D01*
Y101000D01*
X163281Y106019D02*
X166300Y103000D01*
X96500Y115500D02*
X115000Y97000D01*
X177937Y143400D02*
X221400D01*
X232937Y113937D02*
X239500Y120500D01*
Y214500D01*
X243000Y218000D01*
Y268000D01*
X232500Y278500D02*
X243000Y268000D01*
X191000Y278500D02*
X232500D01*
X183500Y271000D02*
X191000Y278500D01*
X121625Y75000D02*
X134500D01*
X16500Y255500D02*
X32000Y271000D01*
X16500Y206500D02*
Y255500D01*
Y206500D02*
X118500Y104500D01*
X149000D01*
X154500Y17500D02*
X176600D01*
X224000Y64900D01*
Y84953D01*
X164750Y85000D02*
X223953D01*
X149750Y70000D02*
X164750Y85000D01*
X128500Y126000D02*
X203400D01*
X210200Y119200D01*
X193500Y262800D02*
Y271000D01*
X84000Y115500D02*
X96500D01*
D38*
X226000Y168700D02*
Y204500D01*
X210300Y153000D02*
X226000Y168700D01*
X213000Y217500D02*
X226000Y204500D01*
X106700Y283500D02*
X172700Y217500D01*
X213000D01*
X128500Y136000D02*
X203300D01*
X218000Y121300D01*
X235500Y56000D02*
Y86500D01*
X149500Y117500D02*
X204500D01*
X235500Y86500D01*
X35000Y207874D02*
X52826Y225700D01*
X117200D01*
X132000Y240500D01*
X52000Y271000D02*
X64500Y283500D01*
X106700D01*
X193500Y153000D02*
X210300D01*
X218000Y112000D02*
Y121300D01*
X197500Y18000D02*
X235500Y56000D01*
D39*
X213000Y205437D02*
D03*
X133000Y207874D02*
D03*
X84000D02*
D03*
Y115500D02*
D03*
Y161687D02*
D03*
X263000Y205437D02*
D03*
X35000Y207874D02*
D03*
D40*
X213000Y197563D02*
D03*
X84000Y107626D02*
D03*
Y200000D02*
D03*
Y153813D02*
D03*
X263000Y197563D02*
D03*
X133000Y200000D02*
D03*
X35000D02*
D03*
D41*
X149500Y117500D02*
D03*
Y147500D02*
D03*
X102000Y240500D02*
D03*
X149750Y70000D02*
D03*
Y40000D02*
D03*
X121625Y35000D02*
D03*
Y75000D02*
D03*
X206000Y40000D02*
D03*
Y70000D02*
D03*
X93500Y40000D02*
D03*
Y70000D02*
D03*
X26000Y240500D02*
D03*
X56000D02*
D03*
X132000D02*
D03*
D42*
X263000Y258000D02*
D03*
D43*
Y238315D02*
D03*
D44*
X230500Y238000D02*
D03*
D45*
Y248000D02*
D03*
Y258000D02*
D03*
D46*
X194000Y231500D02*
D03*
X24500Y55000D02*
D03*
X128500Y126000D02*
D03*
D47*
X194000Y241500D02*
D03*
X24500Y45000D02*
D03*
X128500Y136000D02*
D03*
Y146000D02*
D03*
Y156000D02*
D03*
X173500Y271000D02*
D03*
X183500D02*
D03*
X163500D02*
D03*
X153500D02*
D03*
X143500D02*
D03*
X133500D02*
D03*
X197500Y18000D02*
D03*
X23205Y103642D02*
D03*
X48795D02*
D03*
Y121358D02*
D03*
X102000Y271000D02*
D03*
X92000D02*
D03*
X82000D02*
D03*
X72000D02*
D03*
X62000D02*
D03*
X52000D02*
D03*
X42000D02*
D03*
X154500Y17500D02*
D03*
X47941Y168358D02*
D03*
X22350D02*
D03*
Y150642D02*
D03*
D48*
X193500Y271000D02*
D03*
X187500Y18000D02*
D03*
X23205Y121358D02*
D03*
X32000Y271000D02*
D03*
X144500Y17500D02*
D03*
X47941Y150642D02*
D03*
D49*
X68000Y62000D02*
D03*
D50*
Y52000D02*
D03*
Y42000D02*
D03*
D51*
X45000Y32909D02*
D03*
D52*
Y74091D02*
D03*
D53*
X166300Y103000D02*
D03*
X160000Y101000D02*
D03*
X177937Y143400D02*
D03*
X149000Y104500D02*
D03*
X232937Y113937D02*
D03*
X223953Y85000D02*
D03*
X210200Y119200D02*
D03*
X222800Y155100D02*
D03*
X193500Y153000D02*
D03*
X218000Y112000D02*
D03*
M02*
